# xmcd
#
# Track frame offsets: 
#        150
#        12872
#        34961
#        51249
#        64885
#        93992
#        129017
#        146232
#        172974
#        196585
#        210049
#
# Disc length: 3152 seconds
#
# Revision: 1
# Processed by: cddbd v1.5.2PL0 Copyright (c) Steve Scherf et al.
# Submitted via: ExactAudioCopyFreeDBPlugin 1.0
#
DISCID=8b0c4e0b
DTITLE=Muddy Waters - Blues Legend
DYEAR=2005
DGENRE=Blues
TTITLE0=Baby Please don't Go
TTITLE1=Soon Forgoten
TTITLE2=Corrina, Corrina
TTITLE3=Hoochie, coochie Man
TTITLE4=Howlin' Wolf
TTITLE5=Floyd's Guitar Blues
TTITLE6=Blow Wind Blow
TTITLE7=Caldonia
TTITLE8=Screamin' And Cryin'
TTITLE9=I Got My Mojo Working
TTITLE10=Garbage Man
EXTD=YEAR: 2005
EXTT0=
EXTT1=
EXTT2=
EXTT3=
EXTT4=
EXTT5=
EXTT6=
EXTT7=
EXTT8=
EXTT9=
EXTT10=
PLAYORDER=
